<?xml version="1.0" encoding="utf-8"?>
<!-- Generator: Adobe Illustrator 24.3.0, SVG Export Plug-In . SVG Version: 6.00 Build 0)  -->
<svg version="1.1" id="Warstwa_1" xmlns="http://www.w3.org/2000/svg" xmlns:xlink="http://www.w3.org/1999/xlink" x="0px" y="0px"
	 viewBox="0 0 200 200" style="enable-background:new 0 0 200 200;" xml:space="preserve">
<style type="text/css">
	.st0{fill:#FA2145;}
</style>
<path class="st0" d="M143.6,31.2c12.3,17.5,17.9,35.9,28.3,55.7c10.6,19.6,26.3,40.8,24.9,60c-1.4,19.1-19.6,36.3-39.7,43.3
	c-20.2,7.2-42.2,4.2-65.4,5.8c-23.3,1.8-47.8,8.3-63.5-0.3c-15.7-8.5-22.6-32.1-24.5-53.6c-2-21.5,0.8-40.9,9.5-55.8
	C21.7,71.4,36,61,50.3,44.2C64.5,27.3,78.7,3.8,95.4,0.4C112.2-2.9,131.3,13.6,143.6,31.2z"/>
</svg>
