<?xml version="1.0" encoding="utf-8"?>
<!-- Generator: Adobe Illustrator 24.3.0, SVG Export Plug-In . SVG Version: 6.00 Build 0)  -->
<svg version="1.1" id="Warstwa_1" xmlns="http://www.w3.org/2000/svg" xmlns:xlink="http://www.w3.org/1999/xlink" x="0px" y="0px"
	 viewBox="0 0 200 200" style="enable-background:new 0 0 200 200;" xml:space="preserve">
<style type="text/css">
	.st0{fill:#FA2145;}
</style>
<path class="st0" d="M139,33.8c19.3,13.4,43.4,20.4,50.9,34.9c7.6,14.5-1.7,36.4-13.5,52.9c-11.8,16.6-26,27.6-40.5,41.4
	c-14.6,13.9-29.6,30.4-48.1,35.5c-18.5,5-40.6-1.6-52.3-16.4c-11.8-14.7-13-37.7-17.9-58c-4.9-20.5-13.5-38.4-9.2-52.6
	c4.2-14.1,21-24.4,37.1-38.9C61.5,17.9,76.4-0.6,91,0S119.9,20.4,139,33.8z"/>
</svg>
