<?xml version="1.0" encoding="utf-8"?>
<!-- Generator: Adobe Illustrator 24.3.0, SVG Export Plug-In . SVG Version: 6.00 Build 0)  -->
<svg version="1.1" id="Warstwa_1" xmlns="http://www.w3.org/2000/svg" xmlns:xlink="http://www.w3.org/1999/xlink" x="0px" y="0px"
	 viewBox="0 0 200 200" style="enable-background:new 0 0 200 200;" xml:space="preserve">
<style type="text/css">
	.st0{fill:#FA2145;}
</style>
<path class="st0" d="M156,55.5c6.1,17.6,5.6,31.2,7,42.6c1.5,11.4,4.9,20.5,10.8,39.2c6.1,18.5,14.6,46.8,6.7,54.6
	c-7.8,7.6-32.1-5.3-56.9-4.4c-24.8,0.8-50.2,15.2-71.9,12c-21.7-3.2-39.8-23.9-34.4-43.8c5.3-19.8,34.2-38.6,42.6-64.3
	c8.2-25.5-4.1-57.9,3.2-75.1C70.4-1,97.3-3.1,117.2,6.6C137,16.3,149.9,37.9,156,55.5z"/>
</svg>
